<svg width="41" height="40" viewBox="0 0 41 40" fill="none" xmlns="http://www.w3.org/2000/svg">
<g clip-path="url(#clip0_1_2837)">
<path d="M30.8731 0H9.67231C4.48105 0 0.272705 4.20835 0.272705 9.3996V30.6004C0.272705 35.7917 4.48105 40 9.67231 40H30.8731C36.0644 40 40.2727 35.7917 40.2727 30.6004V9.3996C40.2727 4.20835 36.0644 0 30.8731 0Z" fill="#1A1A1C"/>
<g opacity="0.6">
<path d="M8.29191 20.8333H14.0223C14.5465 20.8333 15.0456 21.0609 15.3923 21.4556L20.2017 26.9626C20.6047 27.4241 20.7488 28.0589 20.5818 28.6499L19.2891 33.2464C19.0677 34.0295 18.3535 34.5725 17.5391 34.5725H11.8087C11.2845 34.5725 10.7854 34.3448 10.4387 33.9501L5.62928 28.4432C5.22623 27.9817 5.08213 27.3468 5.2492 26.7558L6.54188 22.1594C6.76324 21.3763 7.47745 20.8333 8.29191 20.8333Z" fill="#1A1A1C"/>
<path d="M8.34622 20.6809H14.1184C14.6467 20.6809 15.15 20.9085 15.4967 21.3074L20.3395 26.854C20.7468 27.3197 20.8909 27.9587 20.7238 28.5539L19.4207 33.1837C19.1993 33.9731 18.4788 34.5182 17.6581 34.5182H11.886C11.3576 34.5182 10.8543 34.2906 10.5077 33.8917L5.6648 28.3451C5.25757 27.8794 5.11348 27.2403 5.28055 26.6452L6.58367 22.0153C6.80503 21.2259 7.52551 20.6809 8.34622 20.6809Z" fill="#1C1C1C"/>
<path d="M8.40258 20.5284H14.2144C14.7469 20.5284 15.2544 20.7581 15.6032 21.1591L20.4815 26.7454C20.8908 27.2153 21.037 27.8585 20.8679 28.4578L19.5564 33.1211C19.3329 33.9167 18.6062 34.466 17.7813 34.466H11.9695C11.4369 34.466 10.9295 34.2362 10.5807 33.8353L5.70236 28.249C5.29304 27.7791 5.14686 27.1359 5.31601 26.5365L6.62749 21.8733C6.85094 21.0776 7.57768 20.5284 8.40258 20.5284Z" fill="#1F1E1C"/>
<path d="M8.45898 20.376H14.3126C14.8493 20.376 15.3588 20.6078 15.7118 21.0108L20.6256 26.6368C21.0391 27.1088 21.1853 27.7582 21.0141 28.3618L19.6921 33.0584C19.4666 33.8604 18.7357 34.4138 17.9045 34.4138H12.0509C11.5142 34.4138 11.0047 34.182 10.6517 33.7789L5.73788 28.1529C5.32439 27.681 5.1782 27.0315 5.34945 26.428L6.67136 21.7313C6.8969 20.9294 7.62782 20.376 8.45898 20.376Z" fill="#21201D"/>
<path d="M8.51535 20.2235H14.4107C14.9516 20.2235 15.4653 20.4574 15.8204 20.8646L20.7697 26.5303C21.1853 27.0064 21.3336 27.66 21.1623 28.2678L19.8321 32.9978C19.6044 33.8039 18.8693 34.3615 18.0319 34.3615H12.1365C11.5956 34.3615 11.0819 34.1276 10.7269 33.7204L5.77754 28.0547C5.36196 27.5786 5.21369 26.925 5.38494 26.3172L6.71521 21.5872C6.94284 20.7811 7.67793 20.2235 8.51535 20.2235Z" fill="#23211D"/>
<path d="M8.57179 20.0712H14.5089C15.0519 20.0712 15.5698 20.3072 15.9269 20.7165L20.9097 26.4218C21.3274 26.9001 21.4756 27.56 21.3044 28.1719L19.9637 32.9354C19.736 33.7477 18.9947 34.3095 18.151 34.3095H12.2138C11.6709 34.3095 11.153 34.0735 10.7959 33.6642L5.8131 27.9588C5.39543 27.4806 5.24716 26.8207 5.4184 26.2088L6.75911 21.4453C6.98674 20.633 7.7281 20.0712 8.57179 20.0712Z" fill="#25231D"/>
<path d="M8.62812 19.9186H14.607C15.1542 19.9186 15.6763 20.1546 16.0354 20.5681L21.0537 26.3152C21.4756 26.7976 21.6238 27.4596 21.4505 28.0777L20.1014 32.8746C19.8717 33.6932 19.1241 34.2571 18.2762 34.2571H12.2973C11.7502 34.2571 11.2281 34.0211 10.8689 33.6076L5.85063 27.8605C5.42879 27.3781 5.28051 26.7161 5.45385 26.098L6.80291 21.3011C7.03263 20.4824 7.78025 19.9186 8.62812 19.9186Z" fill="#28251D"/>
<path d="M8.6825 19.7663H14.7032C15.2545 19.7663 15.7787 20.0044 16.142 20.42L21.1958 26.2067C21.6197 26.6933 21.7701 27.3595 21.5968 27.9818L20.2373 32.8121C20.0055 33.635 19.2537 34.2051 18.3974 34.2051H12.3768C11.8254 34.2051 11.3013 33.967 10.9379 33.5514L5.88413 27.7646C5.4602 27.2781 5.30984 26.6119 5.48317 25.9896L6.84268 21.1592C7.07448 20.3364 7.82629 19.7663 8.6825 19.7663Z" fill="#2A271E"/>
<path d="M8.73883 19.6138H14.8013C15.3568 19.6138 15.8851 19.8539 16.2506 20.2716L21.3378 26.098C21.7659 26.5867 21.9162 27.2592 21.7408 27.8836L20.373 32.7473C20.1391 33.5764 19.3831 34.1507 18.5206 34.1507H12.4582C11.9027 34.1507 11.3743 33.9105 11.0089 33.4928L5.92167 27.6664C5.49356 27.1777 5.3432 26.5053 5.51862 25.8809L6.88648 21.0171C7.12037 20.188 7.87635 19.6138 8.73883 19.6138Z" fill="#2C291E"/>
<path d="M8.7952 19.4613H14.8994C15.4591 19.4613 15.9895 19.7035 16.3592 20.1233L21.4818 25.9894C21.912 26.4822 22.0645 27.1589 21.887 27.7875L20.5087 32.6846C20.2727 33.5199 19.5125 34.0963 18.6438 34.0963H12.5396C11.9799 34.0963 11.4495 33.8541 11.0798 33.4343L5.95715 27.5682C5.52695 27.0753 5.3745 26.3987 5.55201 25.7701L6.93031 20.873C7.1663 20.0376 7.92645 19.4613 8.7952 19.4613Z" fill="#2E2B1E"/>
<path d="M8.85166 19.3089H14.9976C15.5615 19.3089 16.0961 19.5511 16.4657 19.9772L21.6239 25.883C22.0562 26.3779 22.2108 27.0608 22.0332 27.6936L20.6466 32.6241C20.4106 33.4657 19.6421 34.0463 18.7692 34.0463H12.6232C12.0593 34.0463 11.5247 33.804 11.1551 33.378L5.99691 27.4722C5.56462 26.9773 5.41009 26.2944 5.58759 25.6616L6.97425 20.7311C7.21023 19.8895 7.97874 19.3089 8.85166 19.3089Z" fill="#312D1E"/>
<path d="M8.90794 19.1564H15.0957C15.6616 19.1564 16.2025 19.4007 16.5742 19.8288L21.7679 25.7743C22.2044 26.2734 22.3589 26.9584 22.1793 27.5974L20.7822 32.5614C20.5442 33.4072 19.7715 33.9919 18.8923 33.9919H12.7045C12.1386 33.9919 11.5977 33.7476 11.226 33.3195L6.0323 27.374C5.59584 26.8748 5.4413 26.1899 5.6209 25.5508L7.018 20.5869C7.25607 19.7411 8.02875 19.1564 8.90794 19.1564Z" fill="#332E1F"/>
<path d="M8.96436 19.0039H15.1939C15.764 19.0039 16.3069 19.2504 16.6828 19.6806L21.91 25.6657C22.3485 26.169 22.5051 26.8582 22.3234 27.5014L20.918 32.4988C20.6778 33.3508 19.901 33.9397 19.0155 33.9397H12.786C12.2159 33.9397 11.6729 33.6933 11.297 33.2631L6.06992 27.2779C5.63137 26.7746 5.47475 26.0855 5.65643 25.4423L7.06188 20.4449C7.30204 19.5928 8.0789 19.0039 8.96436 19.0039Z" fill="#35301F"/>
<path d="M9.02073 18.8493H15.2899C15.8642 18.8493 16.4114 19.0979 16.7893 19.5301L22.052 25.5571C22.4947 26.0625 22.6513 26.7579 22.4675 27.4053L21.0516 32.4361C20.8094 33.2944 20.0284 33.8875 19.1366 33.8875H12.8674C12.2932 33.8875 11.746 33.6389 11.368 33.2067L6.10541 27.1797C5.66269 26.6743 5.50606 25.9789 5.68983 25.3315L7.10573 20.3007C7.34797 19.4424 8.12901 18.8493 9.02073 18.8493Z" fill="#37321F"/>
<path d="M9.07503 18.6969H15.386C15.9645 18.6969 16.5137 18.9475 16.8938 19.3819L22.1919 25.4485C22.6367 25.9581 22.7954 26.6577 22.6116 27.3092L21.1874 32.3734C20.9451 33.238 20.1557 33.8332 19.2598 33.8332H12.9489C12.3704 33.8332 11.8212 33.5826 11.4411 33.1482L6.143 27.0816C5.69819 26.572 5.53947 25.8725 5.72325 25.2209L7.14749 20.1567C7.38974 19.2921 8.17913 18.6969 9.07503 18.6969Z" fill="#3A341F"/>
<path d="M9.13143 18.5446H15.4842C16.0668 18.5446 16.6202 18.7952 17.0024 19.2338L22.3339 25.3401C22.7808 25.8538 22.9395 26.5576 22.7557 27.2112L21.3211 32.3089C21.0767 33.1776 20.2832 33.7791 19.381 33.7791H13.0283C12.4456 33.7791 11.8922 33.5285 11.51 33.0899L6.17853 26.9836C5.73162 26.4699 5.57291 25.7661 5.75668 25.1125L7.19137 20.0148C7.4357 19.1461 8.22927 18.5446 9.13143 18.5446Z" fill="#3C3620"/>
<path d="M9.18779 18.392H15.5823C16.1691 18.392 16.7246 18.6447 17.1109 19.0874L22.478 25.2334C22.9291 25.7492 23.0878 26.4572 22.9019 27.1171L21.4589 32.2481C21.2124 33.1232 20.4147 33.7267 19.5063 33.7267H13.1118C12.525 33.7267 11.9695 33.474 11.5831 33.0313L6.21609 26.8853C5.76501 26.3695 5.6063 25.6615 5.79216 25.0016L7.2352 19.8706C7.48162 18.9956 8.27937 18.392 9.18779 18.392Z" fill="#3E3820"/>
<path d="M9.24421 18.2395H15.6805C16.2694 18.2395 16.8311 18.4943 17.2196 18.9391L22.6221 25.1248C23.0753 25.6448 23.2361 26.3569 23.0502 27.021L21.5967 32.1855C21.3482 33.0667 20.5463 33.6744 19.6316 33.6744H13.1953C12.6064 33.6744 12.0447 33.4197 11.6562 32.9749L6.25371 26.7892C5.80054 26.2692 5.63974 25.5571 5.8256 24.893L7.27909 19.7285C7.5276 18.8473 8.32952 18.2395 9.24421 18.2395Z" fill="#403A20"/>
<path d="M9.30066 18.0872H15.7787C16.3718 18.0872 16.9356 18.3441 17.3261 18.791L22.7642 25.0163C23.2215 25.5384 23.3823 26.2568 23.1944 26.9251L21.7325 32.1229C21.484 33.0084 20.6737 33.6224 19.7549 33.6224H13.2769C12.6838 33.6224 12.1199 33.3655 11.7294 32.9186L6.29137 26.6933C5.83402 26.1712 5.67322 25.4528 5.86117 24.7845L7.32301 19.5866C7.57152 18.7012 8.38179 18.0872 9.30066 18.0872Z" fill="#433C20"/>
<path d="M9.35695 17.9347H15.8767C16.474 17.9347 17.042 18.1937 17.4346 18.6427L22.9061 24.9077C23.3655 25.4339 23.5284 26.1565 23.3384 26.8289L21.8661 32.0602C21.6155 32.9519 20.801 33.568 19.8738 33.568H13.354C12.7568 33.568 12.1887 33.309 11.7961 32.8601L6.32468 26.595C5.86525 26.0688 5.70236 25.3462 5.8924 24.6738L7.36468 19.4425C7.61528 18.5508 8.42973 17.9347 9.35695 17.9347Z" fill="#453D21"/>
<path d="M9.41335 17.7823H15.9749C16.5763 17.7823 17.1486 18.0413 17.5432 18.4945L23.0502 24.8012C23.5117 25.3317 23.6767 26.0584 23.4867 26.735L22.006 31.9997C21.7533 32.8977 20.9347 33.518 20.0012 33.518H13.4397C12.8382 33.518 12.266 33.259 11.8713 32.8058L6.36438 26.4991C5.90286 25.9686 5.73788 25.2419 5.92792 24.5653L7.40855 19.3006C7.66124 18.4026 8.47987 17.7823 9.41335 17.7823Z" fill="#473F21"/>
<path d="M9.46762 17.6298H16.0709C16.6766 17.6298 17.2508 17.8908 17.6497 18.3461L23.1922 24.6926C23.6579 25.2251 23.8228 25.9581 23.6307 26.6389L22.1396 31.937C21.8849 32.8413 21.0621 33.4636 20.1223 33.4636H13.519C12.9134 33.4636 12.3391 33.2025 11.9402 32.7473L6.39776 26.4008C5.93206 25.8683 5.76709 25.1353 5.95921 24.4545L7.45029 19.1564C7.70506 18.2521 8.52787 17.6298 9.46762 17.6298Z" fill="#494121"/>
<path d="M9.52403 17.4775H16.1691C16.7768 17.4775 17.3574 17.7406 17.7563 18.1979L23.3321 24.5841C23.7999 25.1208 23.967 25.8559 23.7728 26.5408L22.2733 31.8724C22.0186 32.7808 21.1874 33.4094 20.2435 33.4094H13.5984C12.9907 33.4094 12.4101 33.1463 12.0112 32.6889L6.43538 26.3028C5.9676 25.7661 5.80053 25.031 5.99474 24.346L7.49417 19.0145C7.74895 18.1061 8.5801 17.4775 9.52403 17.4775Z" fill="#4C4321"/>
<path d="M9.5804 17.3249H16.2672C16.8791 17.3249 17.4618 17.5901 17.8648 18.0516L23.4762 24.4775C23.9482 25.0162 24.1152 25.7576 23.921 26.4468L22.4111 31.8117C22.1543 32.7264 21.3189 33.3592 20.3687 33.3592H13.6819C13.07 33.3592 12.4874 33.0939 12.0843 32.6324L6.47295 26.2066C6.00099 25.6678 5.83392 24.9265 6.02813 24.2373L7.538 18.8724C7.79487 17.9577 8.6302 17.3249 9.5804 17.3249Z" fill="#4E4522"/>
<path d="M9.63681 17.1724H16.3633C16.9794 17.1724 17.5662 17.4397 17.9714 17.9033L23.6182 24.3688C24.0923 24.9118 24.2614 25.6573 24.0651 26.3506L22.5469 31.749C22.288 32.67 21.4484 33.3048 20.492 33.3048H13.7655C13.1494 33.3048 12.5626 33.0375 12.1574 32.5739L6.51057 26.1084C6.03652 25.5654 5.86736 24.8199 6.06366 24.1266L7.58189 18.7282C7.84084 17.8073 8.68035 17.1724 9.63681 17.1724Z" fill="#504722"/>
<path d="M9.69318 17.02H16.4615C17.0817 17.02 17.6706 17.2873 18.0799 17.7551L23.7602 24.2603C24.2364 24.8074 24.4055 25.5571 24.2092 26.2546L22.6806 31.6864C22.4195 32.6115 21.5758 33.2526 20.6131 33.2526H13.8448C13.2246 33.2526 12.6357 32.9853 12.2263 32.5175L6.54606 26.0124C6.06992 25.4652 5.90076 24.7155 6.09707 24.018L7.62573 18.5862C7.88677 17.6611 8.73046 17.02 9.69318 17.02Z" fill="#524922"/>
<path d="M9.74963 16.8677H16.5597C17.1841 16.8677 17.7772 17.1371 18.1865 17.607L23.9023 24.1518C24.3826 24.7011 24.5518 25.457 24.3555 26.1587L22.8184 31.6239C22.5553 32.5553 21.7054 33.1985 20.7385 33.1985H13.9284C13.304 33.1985 12.7109 32.9291 12.3016 32.4592L6.5858 25.9144C6.10548 25.3651 5.93632 24.6092 6.13263 23.9075L7.66964 18.4423C7.93277 17.5109 8.78273 16.8677 9.74963 16.8677Z" fill="#554A22"/>
<path d="M9.80389 16.7151H16.6557C17.2843 16.7151 17.8795 16.9866 18.293 17.4585L24.0443 24.0431C24.5267 24.5965 24.6979 25.3545 24.4995 26.0625L22.9521 31.5611C22.6889 32.4987 21.8327 33.1461 20.8595 33.1461H14.0077C13.3791 33.1461 12.7839 32.8746 12.3705 32.4027L6.61917 25.8181C6.13677 25.2647 5.96552 24.5067 6.16391 23.7987L7.71137 18.3001C7.9745 17.3625 8.83072 16.7151 9.80389 16.7151Z" fill="#574C23"/>
<path d="M9.86031 16.5628H16.7539C17.3846 16.5628 17.986 16.8364 18.4016 17.3104L24.1884 23.9367C24.675 24.4922 24.8462 25.2566 24.6457 25.9687L23.0899 31.5007C22.8247 32.4446 21.9643 33.0962 20.9849 33.0962H14.0913C13.4606 33.0962 12.8592 32.8226 12.4436 32.3486L6.6568 25.7223C6.17022 25.1668 5.99897 24.4024 6.19945 23.6903L7.75526 18.1583C8.02048 17.2144 8.88088 16.5628 9.86031 16.5628Z" fill="#594E23"/>
<path d="M9.91669 16.4103H16.8521C17.4869 16.4103 18.0925 16.6839 18.5102 17.1642L24.3304 23.8301C24.8191 24.3898 24.9924 25.1583 24.7919 25.8746L23.2257 31.44C22.9584 32.3881 22.0938 33.0439 21.1081 33.0439H14.1727C13.5379 33.0439 12.9323 32.7703 12.5146 32.29L6.69439 25.624C6.20572 25.0643 6.03239 24.2958 6.23287 23.5795L7.79912 18.0141C8.06643 17.066 8.931 16.4103 9.91669 16.4103Z" fill="#5B5023"/>
<path d="M9.97301 16.2578H16.9501C17.5892 16.2578 18.1969 16.5334 18.6166 17.0158L24.4723 23.7215C24.9631 24.2853 25.1385 25.058 24.9359 25.7764L23.3613 31.3752C23.0919 32.3296 22.2211 32.9895 21.2312 32.9895H14.2541C13.6151 32.9895 13.0074 32.7139 12.5876 32.2315L6.73192 25.5258C6.24116 24.962 6.06574 24.1893 6.2683 23.4709L7.84291 17.8721C8.11231 16.9177 8.98314 16.2578 9.97301 16.2578Z" fill="#5E5223"/>
<path d="M10.0295 16.1054H17.0484C17.6916 16.1054 18.3035 16.3832 18.7253 16.8676L24.6165 23.613C25.1114 24.1789 25.2868 24.9579 25.0822 25.6804L23.4971 31.3127C23.2277 32.2733 22.3506 32.9374 21.3524 32.9374H14.3335C13.6903 32.9374 13.0784 32.6597 12.6566 32.1752L6.76539 25.4298C6.27046 24.8639 6.09503 24.0849 6.29969 23.3624L7.88474 17.7301C8.15413 16.7695 9.03124 16.1054 10.0295 16.1054Z" fill="#605424"/>
<path d="M10.0858 15.9529H17.1464C17.7938 15.9529 18.4078 16.2327 18.8338 16.7193L24.7584 23.5043C25.2555 24.0744 25.433 24.8554 25.2283 25.5843L23.6349 31.2499C23.3634 32.2168 22.4821 32.883 21.4777 32.883H14.417C13.7696 32.883 13.1556 32.6032 12.7296 32.1166L6.805 25.3316C6.30797 24.7615 6.13046 23.9804 6.33512 23.2516L7.92852 17.5859C8.20001 16.619 9.08128 15.9529 10.0858 15.9529Z" fill="#625624"/>
<path d="M10.1422 15.8004H17.2446C17.8962 15.8004 18.5143 16.0824 18.9424 16.571L24.9025 23.3957C25.4037 23.9679 25.5812 24.7552 25.3745 25.4882L23.7707 31.1852C23.4971 32.1563 22.6116 32.8287 21.6009 32.8287H14.4984C13.8469 32.8287 13.2287 32.5468 12.8006 32.0581L6.84052 25.2335C6.33932 24.6613 6.16181 23.874 6.36855 23.1409L7.97239 17.444C8.24597 16.4729 9.13142 15.8004 10.1422 15.8004Z" fill="#645724"/>
<path d="M10.1965 15.6479H17.3407C17.9943 15.6479 18.6167 15.9299 19.0469 16.4227L25.0425 23.2871C25.5458 23.8635 25.7254 24.6549 25.5165 25.3921L23.9043 31.1225C23.6287 32.0999 22.7369 32.7744 21.722 32.7744H14.5778C13.9242 32.7744 13.3018 32.4925 12.8716 31.9996L6.87603 25.1353C6.37274 24.5589 6.19314 23.7674 6.40198 23.0302L8.01417 17.2998C8.28983 16.3225 9.18155 15.6479 10.1965 15.6479Z" fill="#675924"/>
<path d="M10.2529 15.4955H17.4367C18.0946 15.4955 18.7211 15.7795 19.1533 16.2765L25.1845 23.1826C25.6898 23.7632 25.8694 24.5589 25.6627 25.3002L24.0401 31.064C23.7644 32.0476 22.8664 32.7263 21.8452 32.7263H14.6613C14.0035 32.7263 13.377 32.4423 12.9447 31.9453L6.9136 25.0392C6.40822 24.4586 6.22863 23.663 6.43537 22.9216L8.05801 17.1578C8.33367 16.1742 9.23166 15.4955 10.2529 15.4955Z" fill="#695B25"/>
<path d="M10.3092 15.343H17.5349C18.1969 15.343 18.8255 15.6292 19.2619 16.1283L25.3265 23.0741C25.836 23.6567 26.0156 24.4586 25.8068 25.2042L24.1758 31.0014C23.898 31.9892 22.9959 32.6742 21.9684 32.6742H14.7428C14.0808 32.6742 13.4522 32.3881 13.0157 31.8889L6.95119 24.9431C6.44164 24.3605 6.26204 23.5586 6.47088 22.813L8.10187 17.0158C8.37962 16.028 9.28178 15.343 10.3092 15.343Z" fill="#6B5D25"/>
<path d="M10.3657 15.1908H17.6331C18.2993 15.1908 18.932 15.479 19.3706 15.9802L25.4706 22.9656C25.9822 23.5525 26.1639 24.3586 25.953 25.1062L24.3116 30.9368C24.0317 31.9309 23.1254 32.6179 22.0917 32.6179H14.8243C14.1581 32.6179 13.5253 32.3297 13.0868 31.8285L6.98674 24.8431C6.4751 24.2562 6.29341 23.4501 6.50433 22.7025L8.14576 16.8719C8.4256 15.8778 9.33194 15.1908 10.3657 15.1908Z" fill="#6E5F25"/>
<path d="M10.422 15.0381H17.7312C18.4016 15.0381 19.0385 15.3284 19.4791 15.8317L25.6147 22.8569C26.1305 23.4458 26.3122 24.2561 26.1012 25.01L24.4515 30.874C24.1695 31.8743 23.2569 32.5656 22.219 32.5656H14.9099C14.2395 32.5656 13.6026 32.2753 13.1619 31.772L7.02638 24.7468C6.51056 24.1579 6.32888 23.3476 6.5398 22.5937L8.18958 16.7297C8.47151 15.7294 9.38411 15.0381 10.422 15.0381Z" fill="#706125"/>
<path d="M10.4785 14.8837H17.8294C18.5019 14.8837 19.143 15.174 19.5857 15.6815L25.7547 22.7463C26.2726 23.3394 26.4563 24.1539 26.2433 24.9119L24.5831 30.8094C24.2991 31.816 23.3823 32.5093 22.3381 32.5093H14.9872C14.3147 32.5093 13.6736 32.219 13.2309 31.7116L7.06195 24.6467C6.54405 24.0536 6.36027 23.2392 6.57328 22.4811L8.23351 16.5837C8.51753 15.5771 9.4343 14.8837 10.4785 14.8837Z" fill="#726326"/>
<path d="M10.5348 14.7312H17.9275C18.6041 14.7312 19.2494 15.0236 19.6942 15.5331L25.8987 22.6377C26.4187 23.2349 26.6045 24.0536 26.3894 24.8158L24.7209 30.7467C24.4369 31.7574 23.5138 32.457 22.4634 32.457H15.0707C14.394 32.457 13.7487 32.1647 13.3039 31.6551L7.09948 24.5506C6.57949 23.9533 6.39362 23.1347 6.60872 22.3724L8.2773 16.4416C8.56132 15.4308 9.48436 14.7312 10.5348 14.7312Z" fill="#746426"/>
<path d="M10.5891 14.5789H18.0236C18.7044 14.5789 19.3518 14.8733 19.8008 15.387L26.0407 22.5312C26.5649 23.1306 26.7508 23.9555 26.5357 24.7219L24.8567 30.6862C24.5706 31.7032 23.6433 32.407 22.5866 32.407H15.1522C14.4714 32.407 13.824 32.1125 13.375 31.5988L7.13504 24.4546C6.61086 23.8552 6.425 23.0304 6.6401 22.2639L8.31912 16.2996C8.60522 15.2826 9.53245 14.5789 10.5891 14.5789Z" fill="#776626"/>
<path d="M10.6455 14.4262H18.1217C18.8067 14.4262 19.4582 14.7228 19.9093 15.2386L26.1848 22.4225C26.711 23.026 26.899 23.8551 26.6818 24.6257L24.9944 30.6234C24.7062 31.6467 23.7727 32.3525 22.7119 32.3525H15.2356C14.5507 32.3525 13.8991 32.056 13.448 31.5402L7.17256 24.3563C6.6463 23.7528 6.45835 22.9237 6.67554 22.1531L8.36291 16.1554C8.6511 15.1321 9.58459 14.4262 10.6455 14.4262Z" fill="#796826"/>
<path d="M10.7019 14.274H18.2199C18.909 14.274 19.5627 14.5726 20.0159 15.0905L26.3247 22.3162C26.8552 22.9239 27.0431 23.755 26.8238 24.5319L25.126 30.563C24.8357 31.5926 23.8981 32.3026 22.8309 32.3026H15.3129C14.6238 32.3026 13.9701 32.004 13.5169 31.486L7.20808 24.2604C6.67764 23.6527 6.48969 22.8215 6.70897 22.0447L8.40679 16.0136C8.69707 14.984 9.63473 14.274 10.7019 14.274Z" fill="#7B6A27"/>
<path d="M10.7582 14.1214H18.318C19.0113 14.1214 19.6692 14.42 20.1244 14.9421L26.4688 22.2074C27.0013 22.8172 27.1914 23.6547 26.97 24.4357L25.2638 30.5002C24.9735 31.534 24.0296 32.2482 22.9541 32.2482H15.3943C14.701 32.2482 14.0432 31.9495 13.5879 31.4274L7.24356 24.1621C6.71104 23.5523 6.521 22.7149 6.74236 21.9339L8.44853 15.8693C8.73881 14.8356 9.68274 14.1214 10.7582 14.1214Z" fill="#7D6C27"/>
<path d="M10.8146 13.9689H18.4162C19.1116 13.9689 19.7757 14.2696 20.233 14.7938L26.6129 22.0988C27.1496 22.7128 27.3376 23.5544 27.1183 24.3375L25.4017 30.4355C25.1093 31.4754 24.1612 32.1938 23.0794 32.1938H15.4779C14.7825 32.1938 14.1184 31.8931 13.661 31.3689L7.28117 24.0639C6.74447 23.45 6.55652 22.6084 6.77579 21.8252L8.49241 15.7273C8.78478 14.6873 9.73288 13.9689 10.8146 13.9689Z" fill="#806E27"/>
<path d="M10.871 13.8165H18.5122C19.2118 13.8165 19.878 14.1193 20.3395 14.6456L26.7528 21.9902C27.2916 22.6063 27.4816 23.4542 27.2603 24.2415L25.5353 30.3728C25.2408 31.4191 24.2865 32.1417 23.2005 32.1417H15.5593C14.8597 32.1417 14.1935 31.8388 13.732 31.3126L7.31873 23.9679C6.77994 23.3518 6.5899 22.504 6.81126 21.7167L8.53623 15.5853C8.83069 14.5391 9.78506 13.8165 10.871 13.8165Z" fill="#827027"/>
<path d="M10.9274 13.6642H18.6104C19.3142 13.6642 19.9846 13.9691 20.4461 14.4995L26.8949 21.8839C27.4358 22.5041 27.6279 23.3562 27.4044 24.1477L25.669 30.3124C25.3725 31.3629 24.4139 32.0896 23.3217 32.0896H15.6387C14.935 32.0896 14.2646 31.7847 13.8031 31.2543L7.3543 23.8699C6.81342 23.2497 6.6213 22.3976 6.84475 21.6062L8.58016 15.4414C8.8767 14.391 9.83525 13.6642 10.9274 13.6642Z" fill="#847128"/>
<path d="M10.9817 13.5116H18.7064C19.4144 13.5116 20.0868 13.8165 20.5525 14.3511L27.0368 21.7751C27.5819 22.3996 27.774 23.2537 27.5506 24.0514L25.8068 30.2496C25.5102 31.3063 24.5454 32.0372 23.447 32.0372H15.7222C15.0143 32.0372 14.3418 31.7323 13.8761 31.1977L7.39184 23.7737C6.84678 23.1493 6.65466 22.2951 6.87811 21.4974L8.62187 15.2992C8.91841 14.2425 9.88323 13.5116 10.9817 13.5116Z" fill="#867328"/>
<path d="M11.0381 13.3591H18.8046C19.5167 13.3591 20.1933 13.6661 20.6611 14.2028L27.1809 21.6665C27.728 22.293 27.9223 23.1534 27.6967 23.9553L25.9425 30.1869C25.6439 31.2499 24.6749 31.9829 23.5702 31.9829H15.8036C15.0915 31.9829 14.4149 31.6759 13.9471 31.1392L7.42732 23.6755C6.88018 23.049 6.68596 22.1886 6.9115 21.3867L8.66571 15.1551C8.96434 14.0921 9.93333 13.3591 11.0381 13.3591Z" fill="#897528"/>
<path d="M11.0944 13.2068H18.9027C19.619 13.2068 20.2977 13.5159 20.7697 14.0547L27.3229 21.5601C27.8742 22.1908 28.0684 23.0554 27.8408 23.8615L26.0783 30.1265C25.7775 31.1957 24.8023 31.9329 23.6934 31.9329H15.8851C15.1688 31.9329 14.4901 31.6238 14.0181 31.0851L7.46492 23.5796C6.9136 22.9489 6.71938 22.0843 6.94701 21.2782L8.70957 15.0132C9.01029 13.944 9.98554 13.2068 11.0944 13.2068Z" fill="#8B7728"/>
<path d="M11.1508 13.0543H19.0009C19.7193 13.0543 20.4043 13.3654 20.8762 13.9063L27.4649 21.4515C28.0183 22.0842 28.2146 22.9551 27.987 23.7654L26.214 30.0638C25.9112 31.1372 24.9318 31.8806 23.8166 31.8806H15.9665C15.2482 31.8806 14.5632 31.5695 14.0912 31.0286L7.50251 23.4834C6.9491 22.8507 6.7528 21.9798 6.98042 21.1696L8.75342 14.8711C9.05623 13.7977 10.0357 13.0543 11.1508 13.0543Z" fill="#8D7929"/>
<path d="M11.2073 12.9019H19.0991C19.8217 12.9019 20.5087 13.2152 20.9849 13.7581L27.6091 21.343C28.1646 21.9799 28.363 22.8549 28.1332 23.6673L26.3519 29.9991C26.0491 31.0788 25.0634 31.8243 23.942 31.8243H16.0501C15.3276 31.8243 14.6405 31.5111 14.1644 30.9681L7.54016 23.3833C6.98466 22.7463 6.78627 21.8713 7.01599 21.059L8.79734 14.7271C9.10015 13.6475 10.0858 12.9019 11.2073 12.9019Z" fill="#8F7B29"/>
<path d="M11.2636 12.7494H19.1972C19.9239 12.7494 20.6152 13.0626 21.0934 13.6098L27.751 21.2343C28.3107 21.8754 28.5091 22.7546 28.2773 23.5711L26.4855 29.9364C26.1806 31.0223 25.1907 31.772 24.063 31.772H16.1294C15.4027 31.772 14.7114 31.4588 14.2332 30.9116L7.57559 23.2871C7.01591 22.646 6.81752 21.7668 7.04933 20.9503L8.84112 14.585C9.14602 13.4991 10.1359 12.7494 11.2636 12.7494Z" fill="#927D29"/>
<path d="M11.3179 12.597H19.2933C20.0242 12.597 20.7196 12.9124 21.2 13.4637L27.8931 21.1279C28.4548 21.7711 28.6553 22.6545 28.4235 23.4773L26.6234 29.8759C26.3164 30.9661 25.3202 31.7199 24.1884 31.7199H16.213C15.4821 31.7199 14.7867 31.4046 14.3064 30.8533L7.61324 23.1891C7.05148 22.5459 6.851 21.6625 7.0828 20.8397L8.88295 14.441C9.18993 13.3509 10.1861 12.597 11.3179 12.597Z" fill="#947F29"/>
<path d="M11.3743 12.4445H19.3914C20.1265 12.4445 20.824 12.7619 21.3064 13.3153L28.035 21.0192C28.601 21.6666 28.7994 22.5541 28.5675 23.3811L26.757 29.8132C26.4479 30.9095 25.4476 31.6676 24.3094 31.6676H16.2923C15.5572 31.6676 14.8597 31.3502 14.3773 30.7968L7.64868 23.0929C7.08274 22.4455 6.88435 21.558 7.11615 20.731L8.92674 14.2989C9.23581 13.2025 10.2361 12.4445 11.3743 12.4445Z" fill="#96802A"/>
<path d="M11.4307 12.292H19.4896C20.2267 12.292 20.9305 12.6115 21.415 13.167L28.177 20.9105C28.7451 21.56 28.9455 22.4538 28.7116 23.285L26.8927 29.7505C26.5815 30.8531 25.5771 31.6154 24.4306 31.6154H16.3717C15.6345 31.6154 14.9307 31.2958 14.4462 30.7403L7.68419 22.9968C7.11616 22.3473 6.91568 21.4535 7.14958 20.6224L8.96852 14.1569C9.27968 13.0542 10.2842 12.292 11.4307 12.292Z" fill="#98822A"/>
<path d="M11.4871 12.1396H19.5857C20.327 12.1396 21.0329 12.4612 21.5215 13.0187L28.3191 20.802C28.8892 21.4556 29.0918 22.3536 28.8579 23.1889L27.0285 29.6879C26.7173 30.7968 25.7066 31.5611 24.5538 31.5611H16.4552C15.7139 31.5611 15.008 31.2395 14.5193 30.6819L7.72181 22.8987C7.1517 22.245 6.94913 21.347 7.18302 20.5117L9.0124 14.0128C9.32357 12.9039 10.3343 12.1396 11.4871 12.1396Z" fill="#9B842A"/>
<path d="M11.5435 11.9873H19.6838C20.4294 11.9873 21.1394 12.3089 21.6302 12.8706L28.4632 20.6956C29.0375 21.3535 29.2401 22.2556 29.0041 23.0951L27.1663 29.6275C26.8531 30.7405 25.8361 31.5111 24.6791 31.5111H16.5388C15.7933 31.5111 15.0832 31.1895 14.5925 30.6278L7.75944 22.8028C7.18514 22.1449 6.98258 21.2428 7.21856 20.4033L9.05629 13.871C9.36954 12.7579 10.3866 11.9873 11.5435 11.9873Z" fill="#9D862A"/>
<path d="M11.5998 11.8347H19.7819C20.5317 11.8347 21.2438 12.1583 21.7366 12.7222L28.6052 20.5869C29.1815 21.2468 29.3862 22.1531 29.1481 22.9989L27.3 29.5646C26.9846 30.684 25.9634 31.4567 24.8002 31.4567H16.6181C15.8684 31.4567 15.1563 31.133 14.6634 30.5691L7.79489 22.7045C7.21851 22.0445 7.01385 21.1382 7.25192 20.2924L9.1001 13.7267C9.41544 12.6073 10.4366 11.8347 11.5998 11.8347Z" fill="#9F882B"/>
<path d="M11.6562 11.6822H19.8801C20.634 11.6822 21.3503 12.0079 21.8452 12.576L28.7472 20.4803C29.3277 21.1444 29.5324 22.0549 29.2943 22.9028L27.4378 29.5019C27.1204 30.6276 26.095 31.4044 24.9255 31.4044H16.7016C15.9478 31.4044 15.2315 31.0786 14.7365 30.5106L7.83456 22.6062C7.254 21.9422 7.04935 21.0316 7.28742 20.1838L9.14395 13.5846C9.46138 12.459 10.4867 11.6822 11.6562 11.6822Z" fill="#A18A2B"/>
<path d="M11.7106 11.5299H19.9762C20.7343 11.5299 21.4527 11.8577 21.9518 12.4278L28.8892 20.3719C29.4719 21.0381 29.6786 21.9548 29.4385 22.8069L27.5715 29.4394C27.2541 30.5713 26.2224 31.3524 25.0467 31.3524H16.7811C16.023 31.3524 15.3046 31.0245 14.8055 30.4544L7.86803 22.5103C7.28538 21.8442 7.07864 20.9274 7.3188 20.0753L9.18577 13.4428C9.5032 12.3109 10.5348 11.5299 11.7106 11.5299Z" fill="#A48C2B"/>
<path d="M11.7669 11.3773H20.0743C20.8344 11.3773 21.5591 11.7052 22.0603 12.2795L29.0333 20.2632C29.618 20.9336 29.8268 21.8545 29.5846 22.7107L27.7093 29.3767C27.3897 30.5128 26.3518 31.298 25.1719 31.298H16.8645C16.1044 31.298 15.3797 30.9701 14.8785 30.3958L7.90556 22.4121C7.32082 21.7417 7.11199 20.8208 7.35424 19.9646L9.22956 13.2986C9.54908 12.1625 10.587 11.3773 11.7669 11.3773Z" fill="#A68D2B"/>
<path d="M11.8234 11.225H20.1725C20.9369 11.225 21.6657 11.5549 22.1669 12.1313L29.1733 20.1547C29.7622 20.8292 29.971 21.7544 29.7288 22.6148L27.843 29.3141C27.5214 30.4565 26.4793 31.2459 25.2931 31.2459H16.944C16.1796 31.2459 15.4508 30.9159 14.9496 30.3395L7.94325 22.3161C7.35434 21.6416 7.1455 20.7165 7.38775 19.8561L9.27352 13.1567C9.59512 12.0144 10.6372 11.225 11.8234 11.225Z" fill="#A88F2C"/>
<path d="M11.8797 11.0724H20.2706C21.0391 11.0724 21.77 11.4045 22.2754 11.9829L29.3173 20.046C29.9083 20.7226 30.1192 21.6519 29.8749 22.5186L27.9807 29.2514C27.657 30.4 26.6108 31.1935 25.4184 31.1935H17.0274C16.2589 31.1935 15.528 30.8615 15.0226 30.283L7.98074 22.22C7.38974 21.5433 7.17882 20.614 7.42316 19.7474L9.31728 13.0146C9.64097 11.866 10.6872 11.0724 11.8797 11.0724Z" fill="#AA912C"/>
<path d="M11.9361 10.9179H20.3688C21.1414 10.9179 21.8765 11.252 22.384 11.8326L29.4614 19.9374C30.0565 20.6182 30.2654 21.5517 30.021 22.4226L28.1165 29.1888C27.7928 30.3415 26.7403 31.1393 25.5416 31.1393H17.1089C16.3362 31.1393 15.6011 30.8051 15.0936 30.2246L8.01624 22.1197C7.42107 21.4389 7.21223 20.5055 7.45657 19.6346L9.36113 12.8684C9.68482 11.7157 10.7373 10.9179 11.9361 10.9179Z" fill="#AD932C"/>
<path d="M11.9924 10.7654H20.4669C21.2438 10.7654 21.9809 11.1016 22.4926 11.6864L29.6055 19.8309C30.2027 20.5138 30.4136 21.4535 30.1693 22.3285L28.2564 29.1282C27.9306 30.2872 26.8718 31.0891 25.6689 31.0891H17.1945C16.4176 31.0891 15.6804 30.7529 15.1688 30.1682L8.05591 22.0237C7.45865 21.3408 7.24772 20.401 7.49206 19.526L9.40498 12.7264C9.73076 11.5673 10.7895 10.7654 11.9924 10.7654Z" fill="#AF952C"/>
<path d="M12.0488 10.6131H20.5651C21.3461 10.6131 22.0875 10.9493 22.5991 11.5382L29.7454 19.7224C30.3447 20.4095 30.5577 21.3534 30.3113 22.2305L28.388 29.0635C28.0601 30.2288 26.9971 31.0328 25.788 31.0328H17.2718C16.4907 31.0328 15.7494 30.6966 15.2377 30.1077L8.09142 21.9235C7.49207 21.2364 7.27906 20.2925 7.52548 19.4154L9.44884 12.5824C9.77671 11.4171 10.8397 10.6131 12.0488 10.6131Z" fill="#B1972D"/>
<path d="M12.1031 10.4605H20.659C21.4422 10.4605 22.1877 10.7988 22.7035 11.3898L29.8853 19.6137C30.4889 20.3049 30.7019 21.253 30.4534 22.1343L28.5216 29.0008C28.1917 30.1723 27.1245 30.9805 25.9091 30.9805H17.3532C16.5701 30.9805 15.8246 30.6422 15.3087 30.0512L8.12694 21.8273C7.52341 21.1361 7.3104 20.188 7.55891 19.3067L9.49063 12.4403C9.82058 11.2687 10.8877 10.4605 12.1031 10.4605Z" fill="#B4992D"/>
<path d="M12.1595 10.3081H20.7572C21.5445 10.3081 22.2942 10.6485 22.8121 11.2416L30.0294 19.5051C30.635 20.1985 30.8501 21.1528 30.6016 22.0383L28.6594 28.9382C28.3274 30.1139 27.2561 30.9283 26.0323 30.9283H17.4346C16.6473 30.9283 15.8976 30.5879 15.3797 29.9949L8.1624 21.7313C7.55678 21.038 7.34168 20.0836 7.59019 19.1982L9.53235 12.2983C9.86439 11.1226 10.9357 10.3081 12.1595 10.3081Z" fill="#B69A2D"/>
<path d="M12.2159 10.1556H20.8553C21.6468 10.1556 22.3986 10.4981 22.9207 11.0933L30.1714 19.3965C30.7812 20.094 30.9963 21.0505 30.7457 21.9422L28.7952 28.8755C28.4632 30.0575 27.3835 30.874 26.1555 30.874H17.5161C16.7246 30.874 15.9728 30.5315 15.4507 29.9363L8.20002 21.6331C7.59023 20.9356 7.37513 19.9791 7.62573 19.0874L9.57624 12.1541C9.90828 10.9721 10.988 10.1556 12.2159 10.1556Z" fill="#B89C2D"/>
<path d="M12.2724 10.0033H20.9536C21.7492 10.0033 22.5052 10.3479 23.0294 10.9452L30.3156 19.2881C30.9275 19.9876 31.1446 20.9504 30.892 21.8463L28.931 28.8109C28.5969 29.9991 27.513 30.8199 26.2788 30.8199H17.5976C16.802 30.8199 16.046 30.4753 15.5218 29.878L8.2356 21.5351C7.62371 20.8355 7.40653 19.8728 7.65921 18.9769L9.62016 12.0123C9.9543 10.824 11.0381 10.0033 12.2724 10.0033Z" fill="#BA9E2E"/>
<path d="M12.3287 9.85078H21.0516C21.8515 9.85078 22.6116 10.1954 23.1358 10.7989L30.4575 19.1815C31.0715 19.8852 31.2908 20.8521 31.0381 21.7522L29.0688 28.7502C28.7325 29.9448 27.6445 30.7676 26.4041 30.7676H17.6811C16.8812 30.7676 16.1211 30.423 15.5969 29.8195L8.2752 21.4369C7.66123 20.7331 7.44196 19.7662 7.69464 18.8661L9.66395 11.8681C10.0002 10.6736 11.0882 9.85078 12.3287 9.85078Z" fill="#BDA02E"/>
<path d="M12.3851 9.69843H21.1498C21.9517 9.69843 22.7161 10.0451 23.2444 10.6507L30.6016 19.0751C31.2198 19.783 31.4391 20.7541 31.1843 21.6583L29.2045 28.6898C28.8662 29.8885 27.774 30.7175 26.5273 30.7175H17.7625C16.9606 30.7175 16.1963 30.3709 15.6679 29.7652L8.31072 21.3409C7.69257 20.633 7.4733 19.6619 7.72807 18.7576L9.70782 11.7262C10.0461 10.5275 11.1383 9.69843 12.3851 9.69843Z" fill="#BFA22E"/>
<path d="M12.4393 9.54581H21.2459C22.052 9.54581 22.8205 9.89456 23.3509 10.5023L30.7415 18.9663C31.3618 19.6763 31.5831 20.6537 31.3263 21.5621L29.3382 28.6269C28.9999 29.8319 27.8993 30.6652 26.6484 30.6652H17.8419C17.0358 30.6652 16.2673 30.3164 15.7368 29.7087L8.3462 21.2447C7.72597 20.5346 7.5046 19.5573 7.76147 18.6489L9.74957 11.584C10.0879 10.3791 11.1884 9.54581 12.4393 9.54581Z" fill="#C1A42E"/>
<path d="M12.4957 9.39339H21.344C22.1543 9.39339 22.9249 9.74423 23.4595 10.354L30.8856 18.8577C31.5101 19.5719 31.7293 20.5514 31.4746 21.464L29.476 28.5622C29.1356 29.7735 28.0309 30.6088 26.7737 30.6088H17.9254C17.1151 30.6088 16.3446 30.258 15.8099 29.6482L8.38381 21.1445C7.7594 20.4302 7.54012 19.4508 7.7949 18.5382L9.79344 11.44C10.1338 10.2287 11.2386 9.39339 12.4957 9.39339Z" fill="#C3A62F"/>
<path d="M12.5521 9.24097H21.4422C22.2566 9.24097 23.0314 9.5939 23.566 10.2058L31.0276 18.7492C31.6541 19.4676 31.8755 20.4512 31.6186 21.3679L29.6117 28.4996C29.2692 29.715 28.1603 30.5566 26.8969 30.5566H18.0068C17.1924 30.5566 16.4176 30.2037 15.883 29.5918L8.42137 21.0484C7.79487 20.33 7.5735 19.3464 7.83037 18.4296L9.83726 11.298C10.1797 10.0826 11.2887 9.24097 12.5521 9.24097Z" fill="#C6A72F"/>
<path d="M12.6085 9.08849H21.5403C22.3589 9.08849 23.1358 9.44141 23.6746 10.0575L31.1696 18.6405C31.7982 19.361 32.0217 20.3509 31.7627 21.2718L29.7454 28.4369C29.4008 29.6586 28.2877 30.5023 27.018 30.5023H18.0862C17.2676 30.5023 16.4907 30.1494 15.9519 29.5333L8.45688 20.9502C7.82829 20.2298 7.60484 19.2399 7.86379 18.3189L9.88113 11.1539C10.2257 9.93217 11.3388 9.08849 12.6085 9.08849Z" fill="#C8A92F"/>
<path d="M12.6649 8.93607H21.6385C22.4613 8.93607 23.2423 9.29108 23.7832 9.91132L31.3137 18.5341C31.9465 19.2587 32.17 20.2528 31.9089 21.1779L29.8832 28.3764C29.5386 29.6043 28.4172 30.4522 27.1433 30.4522H18.1697C17.3469 30.4522 16.5659 30.0972 16.025 29.4769L8.49448 20.8542C7.86171 20.1295 7.63826 19.1355 7.8993 18.2104L9.92499 11.0119C10.2696 9.78393 11.391 8.93607 12.6649 8.93607Z" fill="#CAAB2F"/>
<path d="M12.7213 8.78357H21.7345C22.5594 8.78357 23.3467 9.14067 23.8897 9.763L31.4557 18.4254C32.0906 19.1522 32.3161 20.1525 32.0551 21.0818L30.019 28.3137C29.6723 29.5479 28.5467 30.3999 27.2665 30.3999H18.2533C17.4284 30.3999 16.6411 30.0428 16.0981 29.4205L8.53207 20.7581C7.89721 20.0314 7.67167 19.031 7.93272 18.1017L9.96884 10.8698C10.3155 9.63561 11.4411 8.78357 12.7213 8.78357Z" fill="#CCAD30"/>
<path d="M12.7777 8.63116H21.8327C22.6618 8.63116 23.4511 8.99036 23.9962 9.61477L31.5978 18.319C32.2368 19.0499 32.4623 20.0544 32.1992 20.9879L30.1547 28.2532C29.806 29.4916 28.6762 30.3478 27.3898 30.3478H18.3347C17.5057 30.3478 16.7163 29.9886 16.1712 29.3642L8.56966 20.66C7.93063 19.9291 7.70509 18.9246 7.96822 17.9911L10.0127 10.7258C10.3615 9.48738 11.4912 8.63116 12.7777 8.63116Z" fill="#CFAF30"/>
<path d="M12.832 8.47867H21.9288C22.762 8.47867 23.5556 8.83786 24.1027 9.46645L31.7377 18.2103C32.3788 18.9454 32.6064 19.952 32.3412 20.8917L30.2863 28.1905C29.9354 29.4351 28.8015 30.2955 27.5067 30.2955H18.4099C17.5767 30.2955 16.7831 29.9363 16.236 29.3077L8.60099 20.5639C7.95988 19.8288 7.73225 18.8222 7.99747 17.8824L10.0524 10.5837C10.4032 9.33906 11.5372 8.47867 12.832 8.47867Z" fill="#D1B130"/>
<path d="M12.8883 8.32637H22.0269C22.8643 8.32637 23.66 8.68765 24.2113 9.31833L31.8818 18.1019C32.525 18.8391 32.7547 19.8519 32.4895 20.7937L30.4262 28.1259C30.0753 29.3768 28.933 30.2393 27.6341 30.2393H18.4955C17.6581 30.2393 16.8624 29.878 16.3111 29.2473L8.64066 20.4638C7.99745 19.7266 7.76774 18.7138 8.03296 17.7719L10.0962 10.4398C10.4471 9.18885 11.5894 8.32637 12.8883 8.32637Z" fill="#D3B330"/>
<path d="M12.9447 8.17384H22.1251C22.9667 8.17384 23.7665 8.53721 24.3199 9.16998L32.0259 17.9932C32.6733 18.7346 32.903 19.7516 32.6357 20.6976L30.5619 28.0632C30.209 29.3183 29.0625 30.187 27.7573 30.187H18.577C17.7354 30.187 16.9356 29.8236 16.3821 29.1909L8.67618 20.3676C8.0288 19.6263 7.79908 18.6093 8.06639 17.6632L10.1401 10.2977C10.493 9.04259 11.6395 8.17384 12.9447 8.17384Z" fill="#D5B431"/>
<path d="M13.0012 8.0215H22.2232C23.069 8.0215 23.8709 8.38696 24.4264 9.0239L32.1658 17.8868C32.8153 18.6302 33.0471 19.6535 32.7777 20.6037L30.6956 28.0027C30.3406 29.2641 29.1899 30.137 27.8785 30.137H18.6564C17.8106 30.137 17.0087 29.7715 16.4532 29.1346L8.7138 20.2717C8.06433 19.5282 7.83252 18.5049 8.10192 17.5548L10.184 10.1558C10.539 8.89442 11.6897 8.0215 13.0012 8.0215Z" fill="#D8B631"/>
<path d="M13.0575 7.86893H22.3214C23.1692 7.86893 23.9774 8.23647 24.535 8.87551L32.3099 17.7781C32.9635 18.5257 33.1932 19.5532 32.9259 20.5075L30.8334 27.9399C30.4763 29.2076 29.3215 30.0826 28.0037 30.0826H18.7399C17.892 30.0826 17.0838 29.715 16.5262 29.076L8.75135 20.1734C8.0977 19.4258 7.86798 18.3983 8.13529 17.444L10.2278 10.0116C10.5849 8.74394 11.7398 7.86893 13.0575 7.86893Z" fill="#DAB831"/>
<path d="M13.1139 7.71645H22.4195C23.2716 7.71645 24.0818 8.08399 24.6436 8.7272L32.454 17.6695C33.1097 18.4213 33.3415 19.4508 33.0721 20.4114L30.9712 27.8772C30.6121 29.1511 29.4509 30.0303 28.129 30.0303H18.8234C17.9714 30.0303 17.1611 29.6628 16.5993 29.0196L8.78893 20.0773C8.1332 19.3255 7.90139 18.296 8.17079 17.3353L10.2717 9.86952C10.6308 8.59564 11.792 7.71645 13.1139 7.71645Z" fill="#DCBA31"/>
<path d="M13.1702 7.56403H22.5176C23.3739 7.56403 24.1883 7.93366 24.7522 8.57896L32.596 17.5609C33.2538 18.3148 33.4877 19.3506 33.2162 20.3154L31.1049 27.8146C30.7457 29.0927 29.5783 29.9761 28.2501 29.9761H18.9027C18.0465 29.9761 17.2321 29.6064 16.6682 28.9611L8.82442 19.9792C8.16659 19.2253 7.9327 18.1895 8.20418 17.2247L10.3155 9.72545C10.6747 8.44739 11.8421 7.56403 13.1702 7.56403Z" fill="#DEBC32"/>
<path d="M13.2246 7.41154H22.6137C23.4741 7.41154 24.2927 7.78327 24.8566 8.43065L32.7359 17.4544C33.3979 18.2124 33.6318 19.2524 33.3603 20.2214L31.2406 27.754C30.8793 29.0384 29.7078 29.9259 28.3733 29.9259H18.9842C18.1238 29.9259 17.3052 29.5542 16.7413 28.9068L8.86202 19.8831C8.20001 19.125 7.96612 18.085 8.2376 17.116L10.3573 9.58341C10.7185 8.29909 11.8901 7.41154 13.2246 7.41154Z" fill="#E1BE32"/>
<path d="M13.2809 7.25912H22.7119C23.5764 7.25912 24.3972 7.63294 24.9652 8.28241L32.88 17.3458C33.5441 18.1059 33.7801 19.1522 33.5065 20.1254L31.3764 27.6914C31.013 28.982 29.8373 29.8737 28.4966 29.8737H19.0656C18.2011 29.8737 17.3804 29.4999 16.8123 28.8504L8.89753 19.7871C8.23344 19.0269 7.99745 17.9806 8.27103 17.0075L10.4011 9.44144C10.7645 8.15084 11.9402 7.25912 13.2809 7.25912Z" fill="#E3C032"/>
<path d="M13.3373 7.10686H22.8079C23.6746 7.10686 24.5016 7.48276 25.0717 8.13432L33.022 17.2374C33.6903 18.0017 33.9263 19.0521 33.6506 20.0274L31.5121 27.6269C31.1467 28.9237 29.9647 29.8175 28.6198 29.8175H19.1492C18.2825 29.8175 17.4555 29.4416 16.8854 28.7901L8.93512 19.687C8.26686 18.9227 8.03087 17.8722 8.30653 16.897L10.445 9.29752C10.8104 8.00067 11.9924 7.10686 13.3373 7.10686Z" fill="#E5C232"/>
<path d="M13.3937 6.95422H22.9061C23.7769 6.95422 24.606 7.33012 25.1803 7.98795L33.164 17.1307C33.8344 17.8992 34.0724 18.9517 33.7968 19.9332L31.6479 27.5661C31.2824 28.8671 30.0942 29.7672 28.743 29.7672H19.2306C18.3598 29.7672 17.5307 29.3913 16.9564 28.7335L8.97271 19.5907C8.30236 18.8222 8.06429 17.7697 8.33995 16.7882L10.4888 9.15533C10.8543 7.8543 12.0426 6.95422 13.3937 6.95422Z" fill="#E7C333"/>
<path d="M13.4501 6.79982H23.0042C23.8792 6.79982 24.7125 7.17781 25.2868 7.83772L33.306 17.0201C33.9784 17.7907 34.2186 18.8495 33.9408 19.8352L31.7836 27.5015C31.416 28.8088 30.2236 29.711 28.8662 29.711H19.312C18.437 29.711 17.6038 29.333 17.0295 28.6731L9.01027 19.4906C8.33783 18.72 8.09767 17.6613 8.37542 16.6756L10.5327 9.00928C10.9002 7.70198 12.0927 6.79982 13.4501 6.79982Z" fill="#EAC533"/>
<path d="M13.5065 6.64722H23.1024C23.9816 6.64722 24.8169 7.02729 25.3954 7.6893L33.4501 16.9114C34.1267 17.6862 34.3669 18.7491 34.087 19.739L31.9194 27.4387C31.5497 28.7523 30.3531 29.6586 28.9873 29.6586H19.3914C18.5122 29.6586 17.6769 29.2785 17.0984 28.6165L9.04372 19.3944C8.3671 18.6197 8.12694 17.5567 8.40677 16.5668L10.5745 8.86712C10.9441 7.55355 12.1407 6.64722 13.5065 6.64722Z" fill="#ECC733"/>
<path d="M13.5608 6.49495H23.1985C24.0818 6.49495 24.9213 6.87712 25.5019 7.54121L33.59 16.803C34.2687 17.5798 34.511 18.6491 34.2311 19.6431L32.0551 27.3762C31.6834 28.694 30.4805 29.6066 29.1105 29.6066H19.4729C18.5895 29.6066 17.75 29.2244 17.1694 28.5603L9.08131 19.2985C8.4026 18.5217 8.16035 17.4525 8.44019 16.4584L10.6162 8.72529C10.988 7.40755 12.1908 6.49495 13.5608 6.49495Z" fill="#EEC933"/>
<path d="M13.6172 6.34241H23.2966C24.1842 6.34241 25.0258 6.72457 25.6105 7.39284L33.7341 16.6964C34.417 17.4774 34.6572 18.5508 34.3773 19.549L32.1929 27.3156C31.8212 28.6396 30.6121 29.5543 29.2359 29.5543H19.5564C18.6689 29.5543 17.8273 29.1721 17.2425 28.5038L9.11891 19.2003C8.43603 18.4193 8.19587 17.3459 8.4757 16.3476L10.6601 8.5811C11.0318 7.2571 12.241 6.34241 13.6172 6.34241Z" fill="#F0CB34"/>
<path d="M13.6736 6.1899H23.3948C24.2844 6.1899 25.1323 6.57415 25.717 7.24451L33.8761 16.5877C34.5611 17.3729 34.8033 18.4505 34.5214 19.4529L32.3266 27.2529C31.9528 28.5831 30.7394 29.502 29.357 29.502H19.6358C18.7461 29.502 17.8983 29.1177 17.3135 28.4474L9.15439 19.1042C8.46942 18.319 8.22717 17.2414 8.5091 16.239L10.7039 8.43903C11.0778 7.10876 12.2911 6.1899 13.6736 6.1899Z" fill="#F3CD34"/>
<path d="M13.7299 6.03748H23.4929C24.3867 6.03748 25.2388 6.42382 25.8256 7.09835L34.0202 16.4812C34.7073 17.2685 34.9516 18.3503 34.6697 19.3569L32.4665 27.1902C32.0906 28.5268 30.8731 29.4498 29.4843 29.4498H19.7214C18.8276 29.4498 17.9755 29.0635 17.3887 28.3889L9.19406 19.006C8.507 18.2187 8.26266 17.137 8.54459 16.1304L10.7478 8.29706C11.1237 6.96052 12.3412 6.03748 13.7299 6.03748Z" fill="#F5CF34"/>
<path d="M13.7863 5.88499H23.5911C24.4891 5.88499 25.3432 6.27342 25.9342 6.95005L34.1622 16.3726C34.8535 17.1641 35.0978 18.25 34.8138 19.2608L32.6002 27.1276C32.2222 28.4683 30.9984 29.3955 29.6055 29.3955H19.8007C18.9028 29.3955 18.0486 29.0071 17.4576 28.3304L9.22958 18.9079C8.53834 18.1164 8.29401 17.0304 8.57802 16.0197L10.7917 8.15293C11.1696 6.81222 12.3934 5.88499 13.7863 5.88499Z" fill="#F7D034"/>
<path d="M13.8427 5.73265H23.6893C24.5914 5.73265 25.4497 6.12317 26.0428 6.80188L34.3064 16.2641C34.9997 17.0577 35.2461 18.1499 34.96 19.1648L32.738 27.065C32.3579 28.412 31.13 29.3434 29.7308 29.3434H19.8843C18.9821 29.3434 18.1238 28.9529 17.5307 28.2742L9.2672 18.8119C8.57387 18.0183 8.32745 16.9261 8.61355 15.9112L10.8355 8.01103C11.2156 6.66405 12.4436 5.73265 13.8427 5.73265Z" fill="#F9D235"/>
<path d="M13.8991 5.58008H23.7874C24.6937 5.58008 25.5541 5.9706 26.1514 6.65348L34.4504 16.1554C35.1479 16.9532 35.3944 18.0495 35.1083 19.0686L32.8758 27.0022C32.4957 28.3555 31.2615 29.289 29.8561 29.289H19.9678C19.0615 29.289 18.2011 28.8984 17.6038 28.2156L9.30477 18.7136C8.60726 17.9159 8.36084 16.8195 8.64694 15.8004L10.8794 7.86681C11.2595 6.51356 12.4937 5.58008 13.8991 5.58008Z" fill="#FCD435"/>
</g>
<path d="M13.9534 5.42757H23.8814C24.7919 5.42757 25.6565 5.82017 26.2537 6.50515L34.5862 16.0468C35.2858 16.8487 35.5343 17.9492 35.2461 18.9725L33.0053 26.9395C32.6231 28.299 31.3848 29.2367 29.973 29.2367H20.0451C19.1346 29.2367 18.27 28.8441 17.6727 28.1591L9.34028 18.6175C8.64069 17.8156 8.39217 16.715 8.68037 15.6917L10.9212 7.72474C11.3033 6.36523 12.5417 5.42757 13.9534 5.42757Z" fill="#FED635"/>
</g>
<defs>
<clipPath id="clip0_1_2837">
<rect width="40" height="40" fill="white" transform="translate(0.272705)"/>
</clipPath>
</defs>
</svg>
