<svg width="44" height="40" viewBox="0 0 44 40" fill="none" xmlns="http://www.w3.org/2000/svg">
<path d="M14.16 0.00069046H29.4042C33.0816 0.00105667 36.6084 1.47378 39.2087 4.09505C41.8093 6.71614 43.2702 10.2711 43.2707 13.9781V26.0248C43.2707 27.8603 42.912 29.6777 42.2151 31.3734C41.5182 33.0692 40.4967 34.61 39.2091 35.9078C37.9215 37.2056 36.3929 38.2351 34.7105 38.9373C33.0282 39.6396 31.2251 40.0009 29.4042 40.0007H14.16C12.3391 40.0009 10.536 39.6396 8.85382 38.9373C7.17146 38.2348 5.64292 37.2055 4.35547 35.9076C3.06801 34.6098 2.04655 33.0691 1.35001 31.3734C0.653282 29.6776 0.29474 27.8601 0.294922 26.0248V13.9781C0.294922 6.25724 6.50038 0.00069046 14.16 0.00069046Z" fill="black"/>
</svg>
