<svg width="36" height="32" viewBox="0 0 36 32" fill="none" xmlns="http://www.w3.org/2000/svg">
<path d="M11.7473 0H24.0326C26.9654 0.000309084 29.7786 1.17849 31.8531 3.27543C33.9268 5.37238 35.0926 8.21634 35.0926 11.1819V20.8192C35.0926 22.2877 34.8066 23.7416 34.2512 25.0982C33.6949 26.4548 32.8806 27.6874 31.8531 28.7256C30.8266 29.7639 29.6065 30.5875 28.2649 31.1492C26.9233 31.7111 25.4845 32.0001 24.0326 32H11.8741C10.4216 32.0001 8.98335 31.7111 7.64155 31.1492C6.29957 30.5875 5.08025 29.7639 4.05324 28.7256C3.02605 27.6874 2.21127 26.4548 1.65546 25.0982C1.09956 23.7416 0.813469 22.2877 0.813469 20.8192V11.1819C0.813469 5.0052 5.63765 0 11.7473 0Z" fill="black"/>
</svg>
