<svg width="157" height="32" viewBox="0 0 157 32" fill="none" xmlns="http://www.w3.org/2000/svg">
<path d="M87.7473 0H100.033C102.965 0.000309084 105.779 1.17849 107.853 3.27543C109.927 5.37238 111.093 8.21634 111.093 11.1819V20.8192C111.093 22.2877 110.807 23.7416 110.251 25.0982C109.695 26.4548 108.881 27.6874 107.853 28.7256C106.827 29.7639 105.607 30.5875 104.265 31.1492C102.923 31.7111 101.484 32.0001 100.033 32H87.8741C86.4216 32.0001 84.9833 31.7111 83.6416 31.1492C82.2996 30.5875 81.0803 29.7639 80.0532 28.7256C79.026 27.6874 78.2113 26.4548 77.6555 25.0982C77.0996 23.7416 76.8135 22.2877 76.8135 20.8192V11.1819C76.8135 5.0052 81.6377 0 87.7473 0Z" fill="black"/>
<path d="M90.7558 18.0926V17.5495H87.5203V15.132H93.8285V18.0075C93.8285 22.5337 91.6905 25.1634 87.6471 25.1634C83.477 25.1634 81.0554 21.8413 81.0554 15.984C81.0554 10.2725 83.6983 6.77563 88.5473 6.77563C90.3788 6.77563 91.9591 7.26637 92.8224 7.90513V10.3937C91.582 9.61661 90.1539 9.20005 88.6949 9.18965C85.5148 9.18965 84.1663 11.3728 84.1663 15.984C84.1663 20.4566 85.2831 22.7448 87.7047 22.7448C90.018 22.7564 90.7558 20.9461 90.7558 18.0926Z" fill="white"/>
<path d="M106.911 18.4335C106.911 22.779 104.594 25.1744 101.263 25.1744C97.9318 25.1744 95.6151 22.779 95.6151 18.466C95.6151 14.1207 97.9318 11.7253 101.263 11.7253C104.594 11.7253 106.911 14.1101 106.911 18.4335ZM103.783 18.4335C103.783 15.4518 102.94 14.1428 101.267 14.1428C99.5932 14.1428 98.7489 15.4519 98.7489 18.466C98.7489 21.4478 99.5913 22.758 101.267 22.758C102.941 22.758 103.783 21.4373 103.783 18.4335Z" fill="white"/>
<path d="M8.67684 9.45698H7.2937C4.78102 9.45698 3.45783 10.745 3.45783 12.6508C3.45783 14.8129 4.373 15.8142 6.25867 17.1023L7.80662 18.1572L3.33103 24.9179H0L4.01223 18.8694C1.69549 17.1979 0.399955 15.58 0.399955 12.8221C0.399955 9.37186 2.76626 7.03945 7.26143 7.03945H11.7358V24.919H8.66646V9.45698H8.67684ZM24.388 11.9805V24.919H21.366V19.5199H17.3214V24.919H14.2992V11.9805H17.3214V17.1023H21.366V11.9805H24.388ZM38.0452 27.8691H35.2444V24.9085H28.4522V27.8691H25.6514V22.4967H26.5988C27.6626 20.3346 27.8736 16.2455 27.8736 13.0833V11.9758H36.6968V22.4967H38.0452V27.8691ZM33.6746 14.398H30.4739V14.7815C30.4739 17.0172 30.2433 20.5421 29.3996 22.5016H33.6746V14.398ZM44.8365 25.1637C40.9729 25.1637 38.7818 22.9806 38.7818 18.4766C38.7818 14.5682 40.5407 11.7159 44.2268 11.7159C47.2489 11.7159 49.2072 13.4189 49.2072 17.9136V19.5314H41.91C42.0356 21.6937 42.8782 22.7475 45.0901 22.7475C46.5642 22.7475 48.1434 22.1833 49.0803 21.5339V24.0354C48.1964 24.6533 46.774 25.1637 44.8365 25.1637ZM41.91 17.2724H46.132V17.0184C46.132 15.4004 45.671 14.144 44.1726 14.144C42.7307 14.1311 41.9941 15.2175 41.91 17.2724ZM54.2717 18.5617V24.919H51.2392V11.9805H54.2717V17.9439L58.5525 11.9805H61.6069L57.3318 17.9439L62.1856 24.9085H58.7473L54.2717 18.5617ZM62.0115 18.4557C62.0115 14.5146 64.0228 11.7148 67.8898 11.7148C69.3883 11.7148 70.512 11.9701 71.1436 12.3313V14.9307C70.5328 14.5472 69.3847 14.1311 68.216 14.1311C66.2358 14.1311 65.1408 15.5695 65.1408 18.381C65.1408 21.0537 66.0364 22.7567 68.1952 22.7567C69.4689 22.7567 70.3852 22.4269 71.1436 21.8837V24.3759C70.4059 24.919 69.4147 25.1742 68.0154 25.1742C63.9698 25.1637 62.0104 22.7789 62.0104 18.4557H62.0115Z" fill="black"/>
<path d="M116.816 7.05396H122.683C123.833 7.05396 124.909 7.20352 125.911 7.50265C126.914 7.78517 127.785 8.25879 128.524 8.92352C129.264 9.57159 129.847 10.4358 130.274 11.516C130.703 12.5796 130.916 13.8924 130.916 15.4546C130.916 17.0333 130.703 18.4127 130.274 19.5924C129.847 20.7724 129.255 21.7612 128.5 22.5589C127.744 23.3399 126.839 23.9298 125.789 24.3287C124.753 24.7275 123.627 24.9269 122.411 24.9269H116.816V7.05396ZM118.565 8.67424V23.3316H122.436C123.389 23.3316 124.268 23.1738 125.073 22.8579C125.879 22.5422 126.577 22.0686 127.169 21.4371C127.76 20.789 128.22 19.9831 128.549 19.0191C128.879 18.0387 129.042 16.8837 129.042 15.5542C129.042 14.2414 128.879 13.1446 128.549 12.2637C128.22 11.3664 127.769 10.6601 127.193 10.1449C126.635 9.61319 125.97 9.23928 125.197 9.02323C124.424 8.79057 123.594 8.67424 122.707 8.67424H118.565Z" fill="black"/>
<path d="M143.463 23.8301C143.316 23.9631 143.101 24.1043 142.822 24.2538C142.558 24.4034 142.239 24.553 141.861 24.7026C141.499 24.8356 141.08 24.9436 140.604 25.0267C140.127 25.1263 139.601 25.1761 139.026 25.1761C136.956 25.1761 135.361 24.5863 134.244 23.4063C133.127 22.2265 132.569 20.573 132.569 18.4458C132.569 17.3988 132.716 16.4599 133.012 15.629C133.324 14.7981 133.751 14.1001 134.294 13.535C134.836 12.9535 135.469 12.513 136.191 12.2139C136.931 11.8981 137.719 11.7402 138.558 11.7402C139.429 11.7402 140.217 11.8898 140.924 12.189C141.631 12.4881 142.213 12.9367 142.674 13.535C143.15 14.1167 143.479 14.8479 143.661 15.7286C143.84 16.6094 143.849 17.6315 143.685 18.7947H134.219C134.286 20.4068 134.738 21.6282 135.575 22.4591C136.414 23.29 137.605 23.7055 139.149 23.7055C140.135 23.7055 140.998 23.5559 141.737 23.2567C142.494 22.9577 143.069 22.6503 143.463 22.3344V23.8301ZM138.533 13.211C137.449 13.211 136.512 13.56 135.723 14.2579C134.951 14.9559 134.474 16.0028 134.294 17.3988H142.182C142.231 16.6842 142.165 16.0694 141.984 15.5542C141.803 15.0225 141.549 14.582 141.219 14.233C140.891 13.884 140.498 13.6266 140.037 13.4602C139.577 13.2941 139.076 13.211 138.533 13.211Z" fill="black"/>
<path d="M152.317 24.9276H149.729L145.07 11.9902H146.821L151.11 24.0551L155.35 11.9902H157L152.317 24.9276Z" fill="black"/>
</svg>
