<svg width="20" height="24" viewBox="0 0 20 24" fill="none" xmlns="http://www.w3.org/2000/svg">
<g clip-path="url(#clip0_1_3022)">
<path d="M6.02688 6.36744C5.72707 5.35176 4.91328 5.46308 4.35688 5.93614C2.98625 7.20221 1.20159 9.85963 2.34378 13.6861C3.30036 16.9279 7.28068 19.001 7.28068 19.001H2.64068C2.64068 19.001 0.244856 16.3157 0.0306845 13.1575C-0.240576 9.16446 1.35861 6.64614 3.21467 5.00446C4.9565 3.46009 6.61268 3.00098 6.61268 3.00098L10.0005 14.101L13.3883 3.00098C13.3883 3.00098 15.0445 3.46009 16.7863 5.00446C18.6424 6.64614 20.2416 9.16446 19.9703 13.1575C19.7562 16.3157 17.3603 19.001 17.3603 19.001H12.7203C12.7203 19.001 16.7003 16.9279 17.6572 13.6861C18.7994 9.86007 17.0148 7.20265 15.6441 5.93614C15.0873 5.46308 14.2735 5.35176 13.9741 6.36744C12.9462 9.60918 10.0009 18.8974 10.0009 18.8974C10.0009 18.8974 7.05569 9.60607 6.02772 6.36744H6.02688Z" fill="#E82323"/>
</g>
<defs>
<clipPath id="clip0_1_3022">
<rect width="20" height="16" fill="white" transform="translate(0 3)"/>
</clipPath>
</defs>
</svg>
