<svg width="140" height="40" viewBox="0 0 140 40" fill="none" xmlns="http://www.w3.org/2000/svg">
<g id="YandexGo_Logo_Black_Ru 1" clip-path="url(#clip0_1_2827)">
<g id="g10">
<g id="g12">
<path id="path14" d="M110.16 0.00069046H125.404C129.082 0.00105667 132.608 1.47378 135.209 4.09505C137.809 6.71614 139.27 10.2711 139.271 13.9781V26.0248C139.271 27.8603 138.912 29.6777 138.215 31.3734C137.518 33.0692 136.497 34.61 135.209 35.9078C133.921 37.2056 132.393 38.2351 130.711 38.9373C129.028 39.6396 127.225 40.0009 125.404 40.0007H110.16C108.339 40.0009 106.536 39.6396 104.854 38.9373C103.171 38.2348 101.643 37.2055 100.355 35.9076C99.068 34.6098 98.0466 33.0691 97.35 31.3734C96.6533 29.6776 96.2947 27.8601 96.2949 26.0248V13.9781C96.2949 6.25724 102.5 0.00069046 110.16 0.00069046Z" fill="black"/>
<path id="path16" d="M113.794 22.6166V21.9377H109.738V18.9159H117.648V22.5103C117.648 28.1681 114.968 31.4552 109.896 31.4552C104.667 31.4552 101.629 27.3026 101.629 19.981C101.629 12.8416 104.945 8.47046 111.025 8.47046C113.323 8.47046 115.303 9.08373 116.386 9.88228V12.993C114.83 12.0214 113.04 11.5006 111.21 11.4879C107.222 11.4879 105.532 14.2168 105.532 19.981C105.532 25.5715 106.931 28.4317 109.968 28.4317C112.87 28.4463 113.794 26.1835 113.794 22.6166Z" fill="white"/>
<path id="path18" d="M130.132 23.0421C130.132 19.315 129.076 17.6788 126.975 17.6788C124.875 17.6788 123.82 19.315 123.82 23.083C123.82 26.8101 124.876 28.4477 126.975 28.4477C129.074 28.4477 130.132 26.797 130.132 23.0421ZM134.054 23.0421C134.054 28.474 131.148 31.4682 126.971 31.4682C122.793 31.4682 119.888 28.474 119.888 23.083C119.888 17.6512 122.793 14.6568 126.971 14.6568C131.148 14.6568 134.054 17.6379 134.054 23.0421Z" fill="white"/>
<path id="path20" d="M77.7669 23.07C77.7669 18.1436 80.2892 14.6438 85.1389 14.6438C87.018 14.6438 88.4272 14.9631 89.2194 15.4147V18.6638C88.4532 18.1846 87.0136 17.6644 85.548 17.6644C83.0645 17.6644 81.6914 19.4624 81.6914 22.9767C81.6914 26.3176 82.8145 28.4464 85.5218 28.4464C87.1191 28.4464 88.2683 28.034 89.2194 27.3551V30.4702C88.2943 31.1493 87.0512 31.4684 85.2963 31.4684C80.2227 31.4551 77.7654 28.474 77.7654 23.07H77.7669ZM68.0603 23.2026V31.1493H64.2572V14.976H68.0603V22.4304L73.4289 14.976H77.2596L71.8982 22.4304L77.9851 31.136H73.6732L68.0603 23.2026ZM52.5576 21.5911H57.8523V21.2735C57.8523 19.2511 57.2742 17.6804 55.3951 17.6804C53.5867 17.6644 52.6631 19.0224 52.5576 21.5911ZM56.2276 31.4551C51.3823 31.4551 48.6345 28.7262 48.6345 23.0962C48.6345 18.2107 50.8403 14.6453 55.4629 14.6453C59.2531 14.6453 61.7089 16.7742 61.7089 22.3924V24.4147H52.5576C52.7151 27.1176 53.7718 28.4348 56.5456 28.4348C58.3943 28.4348 60.3747 27.7294 61.55 26.918V30.0448C60.4412 30.8169 58.6574 31.4551 56.2276 31.4551ZM42.2296 17.998H38.2154V18.4773C38.2154 21.272 37.9263 25.678 36.8682 28.1273H42.2296V17.998ZM47.7109 34.8369H44.1983V31.136H35.68V34.8369H32.1674V28.1215H33.3556C34.6898 25.4187 34.9543 20.3075 34.9543 16.3544V14.9702H46.0196V28.1215H47.7109V34.8369ZM30.5833 14.976V31.1493H26.7933V24.4002H21.7209V31.1493H17.9309V14.976H21.7209V21.3784H26.7933V14.976H30.5833ZM10.8798 11.8216H9.14518C5.99404 11.8216 4.33468 13.4316 4.33468 15.8138C4.33468 18.5167 5.4824 19.7684 7.84717 21.3784L9.78851 22.6969L4.17566 31.1478H-0.00183105L5.02991 23.5873C2.12451 21.4978 0.499802 19.4755 0.499802 16.028C0.499802 11.7153 3.46735 8.79983 9.10469 8.79983H14.7161V31.1493H10.8668V11.8216H10.8798Z" fill="black"/>
</g>
</g>
</g>
<defs>
<clipPath id="clip0_1_2827">
<rect width="139.273" height="40" fill="white"/>
</clipPath>
</defs>
</svg>
