<svg width="72" height="21" viewBox="0 0 72 21" fill="none" xmlns="http://www.w3.org/2000/svg">
<path d="M8.67684 2.45698H7.2937C4.78102 2.45698 3.45783 3.745 3.45783 5.6508C3.45783 7.81292 4.373 8.81418 6.25867 10.1023L7.80662 11.1572L3.33103 17.9179H0L4.01223 11.8694C1.69549 10.1979 0.399955 8.57999 0.399955 5.82212C0.399955 2.37186 2.76626 0.0394535 7.26143 0.0394535H11.7358V17.919H8.66646V2.45698H8.67684ZM24.388 4.98046V17.919H21.366V12.5199H17.3214V17.919H14.2992V4.98046H17.3214V10.1023H21.366V4.98046H24.388ZM38.0452 20.8691H35.2444V17.9085H28.4522V20.8691H25.6514V15.4967H26.5988C27.6626 13.3346 27.8736 9.24551 27.8736 6.08326V4.97582H36.6968V15.4967H38.0452V20.8691ZM33.6746 7.39805H30.4739V7.78153C30.4739 10.0172 30.2433 13.5421 29.3996 15.5016H33.6746V7.39805ZM44.8365 18.1637C40.9729 18.1637 38.7818 15.9806 38.7818 11.4766C38.7818 7.56823 40.5407 4.71591 44.2268 4.71591C47.2489 4.71591 49.2072 6.41891 49.2072 10.9136V12.5314H41.91C42.0356 14.6937 42.8782 15.7475 45.0901 15.7475C46.5642 15.7475 48.1434 15.1833 49.0803 14.5339V17.0354C48.1964 17.6533 46.774 18.1637 44.8365 18.1637ZM41.91 10.2724H46.132V10.0184C46.132 8.40044 45.671 7.144 44.1726 7.144C42.7307 7.13114 41.9941 8.21749 41.91 10.2724ZM54.2717 11.5617V17.919H51.2392V4.98046H54.2717V10.9439L58.5525 4.98046H61.6069L57.3318 10.9439L62.1856 17.9085H58.7473L54.2717 11.5617ZM62.0115 11.4557C62.0115 7.51462 64.0228 4.71478 67.8898 4.71478C69.3883 4.71478 70.512 4.97006 71.1436 5.33133V7.93073C70.5328 7.54724 69.3847 7.13114 68.216 7.13114C66.2358 7.13114 65.1408 8.56949 65.1408 11.381C65.1408 14.0537 66.0364 15.7567 68.1952 15.7567C69.4689 15.7567 70.3852 15.4269 71.1436 14.8837V17.3759C70.4059 17.919 69.4147 18.1742 68.0154 18.1742C63.9698 18.1637 62.0104 15.7789 62.0104 11.4557H62.0115Z" fill="black"/>
</svg>
